<svg xmlns="http://www.w3.org/2000/svg" width="900" height="1200" viewBox="0 0 900 1200" preserveAspectRatio="xMidYMid slice">
  <defs>
    <linearGradient id="bg" x1="0" y1="0" x2="0" y2="1">
      <stop offset="0%" stop-color="#05070b" />
      <stop offset="60%" stop-color="#0d151e" />
      <stop offset="100%" stop-color="#092025" />
    </linearGradient>
    <linearGradient id="grid" x1="0" y1="0" x2="1" y2="1">
      <stop offset="0%" stop-color="rgba(27,185,165,0.05)" />
      <stop offset="100%" stop-color="rgba(27,185,165,0.4)" />
    </linearGradient>
  </defs>
  <rect width="900" height="1200" fill="url(#bg)" />
  <g stroke="url(#grid)" stroke-width="0.8" opacity="0.35">
    <path d="M100 0 L100 1200" />
    <path d="M250 0 L250 1200" />
    <path d="M400 0 L400 1200" />
    <path d="M550 0 L550 1200" />
    <path d="M700 0 L700 1200" />
    <path d="M0 220 L900 220" />
    <path d="M0 480 L900 480" />
    <path d="M0 760 L900 760" />
    <path d="M0 1040 L900 1040" />
  </g>
  <g opacity="0.45" fill="#0f1921">
    <path d="M0 1100 Q220 860 450 1100 T900 1100 V1200 H0 Z" />
  </g>
  <g opacity="0.4" fill="#1bb9a5">
    <circle cx="200" cy="360" r="160" fill="rgba(27,185,165,0.2)" />
    <circle cx="700" cy="640" r="120" fill="rgba(27,185,165,0.15)" />
    <path d="M-40 1200 L380 420 L620 1200 Z" fill="rgba(27,185,165,0.2)" />
  </g>
</svg>
